/* XPM */
static char *tlForwardBack[] = {
/* width height num_colors chars_per_pixel */
"    18    18        4            1",
/* colors */
"` c #000000",
". c #000081",
"# c none",
"a c #818181",
/* pixels */
"##################",
"#a.###.###########",
"#.a##.a###########",
"#a.#.a.###########",
"#.a.a.a.a.a.a.a.a#",
"#a.a.a.a.a.a.a.a.#",
"#.a`a.a``````````#",
"#a.#`a.###########",
"#.a##`a###########",
"#``###`####.###.a#",
"###########a.##a.#",
"###########.a.#.a#",
"#a.a.a.a.a.a.a.a.#",
"#.a.a.a.a.a.a.a.a#",
"#``````````a.a`a.#",
"###########.a`#.a#",
"###########a`##a.#",
"###########`###``#"
};
